<?xml version="1.0" encoding="UTF-8" standalone="no"?> <svg width="64" height="64" viewBox="0 0 64 64" fill="none" xmlns="http://www.w3.org/2000/svg">
<path d="M9 63H55C55.7956 63 56.5587 62.6839 57.1213 62.1213C57.6839 61.5587 58 60.7956 58 60V24C58 23.2044 57.6839 22.4413 57.1213 21.8787C56.5587 21.3161 55.7956 21 55 21H37V13H38C38.7956 13 39.5587 12.6839 40.1213 12.1213C40.6839 11.5587 41 10.7956 41 10V4C41 3.20435 40.6839 2.44129 40.1213 1.87868C39.5587 1.31607 38.7956 1 38 1H26C25.2044 1 24.4413 1.31607 23.8787 1.87868C23.3161 2.44129 23 3.20435 23 4V10C23 10.7956 23.3161 11.5587 23.8787 12.1213C24.4413 12.6839 25.2044 13 26 13H27V21H9C8.20435 21 7.44129 21.3161 6.87868 21.8787C6.31607 22.4413 6 23.2044 6 24V60C6 60.7956 6.31607 61.5587 6.87868 62.1213C7.44129 62.6839 8.20435 63 9 63ZM26 11C25.7348 11 25.4804 10.8946 25.2929 10.7071C25.1054 10.5196 25 10.2652 25 10V4C25 3.73478 25.1054 3.48043 25.2929 3.29289C25.4804 3.10536 25.7348 3 26 3H38C38.2652 3 38.5196 3.10536 38.7071 3.29289C38.8946 3.48043 39 3.73478 39 4V10C39 10.2652 38.8946 10.5196 38.7071 10.7071C38.5196 10.8946 38.2652 11 38 11H26ZM35 13V21H29V13H35ZM8 48H18V46H8V38H18V36H8V24C8 23.7348 8.10536 23.4804 8.29289 23.2929C8.48043 23.1054 8.73478 23 9 23H55C55.2652 23 55.5196 23.1054 55.7071 23.2929C55.8946 23.4804 56 23.7348 56 24V36H46V38H56V46H46V48H56V60C56 60.2652 55.8946 60.5196 55.7071 60.7071C55.5196 60.8946 55.2652 61 55 61H9C8.73478 61 8.48043 60.8946 8.29289 60.7071C8.10536 60.5196 8 60.2652 8 60V48Z" fill="black"/>
<path d="M23 54H41C41.7956 54 42.5587 53.6839 43.1213 53.1213C43.6839 52.5587 44 51.7956 44 51V33C44 32.2044 43.6839 31.4413 43.1213 30.8787C42.5587 30.3161 41.7956 30 41 30H23C22.2044 30 21.4413 30.3161 20.8787 30.8787C20.3161 31.4413 20 32.2044 20 33V51C20 51.7956 20.3161 52.5587 20.8787 53.1213C21.4413 53.6839 22.2044 54 23 54ZM22 33C22 32.7348 22.1054 32.4804 22.2929 32.2929C22.4804 32.1054 22.7348 32 23 32H41C41.2652 32 41.5196 32.1054 41.7071 32.2929C41.8946 32.4804 42 32.7348 42 33V51C42 51.2652 41.8946 51.5196 41.7071 51.7071C41.5196 51.8946 41.2652 52 41 52H23C22.7348 52 22.4804 51.8946 22.2929 51.7071C22.1054 51.5196 22 51.2652 22 51V33Z" fill="black"/>
<path d="M32 4C31.4067 4 30.8266 4.17595 30.3333 4.50559C29.8399 4.83524 29.4554 5.30377 29.2284 5.85195C29.0013 6.40013 28.9419 7.00333 29.0576 7.58527C29.1734 8.16721 29.4591 8.70176 29.8787 9.12132C30.2982 9.54088 30.8328 9.8266 31.4147 9.94236C31.9967 10.0581 32.5999 9.9987 33.148 9.77164C33.6962 9.54458 34.1648 9.16006 34.4944 8.66671C34.8241 8.17336 35 7.59334 35 7C35 6.20435 34.6839 5.44129 34.1213 4.87868C33.5587 4.31607 32.7957 4 32 4V4ZM32 8C31.8022 8 31.6089 7.94135 31.4444 7.83147C31.28 7.72159 31.1518 7.56541 31.0761 7.38268C31.0004 7.19996 30.9806 6.99889 31.0192 6.80491C31.0578 6.61093 31.153 6.43275 31.2929 6.29289C31.4327 6.15304 31.6109 6.0578 31.8049 6.01921C31.9989 5.98063 32.2 6.00043 32.3827 6.07612C32.5654 6.15181 32.7216 6.27998 32.8315 6.44443C32.9414 6.60888 33 6.80222 33 7C33 7.26522 32.8946 7.51957 32.7071 7.70711C32.5196 7.89464 32.2652 8 32 8Z" fill="black"/>
</svg>
